<svg xmlns="http://www.w3.org/2000/svg" xmlns:xlink="http://www.w3.org/1999/xlink" width="800" zoomAndPan="magnify" viewBox="0 0 600 899.99999" height="1200" preserveAspectRatio="xMidYMid meet" version="1.0"><defs><clipPath id="369427c888"><path d="M 180.070312 474 L 419 474 L 419 558.941406 L 180.070312 558.941406 Z M 180.070312 474 " clip-rule="nonzero"/></clipPath><clipPath id="db0f2e60d6"><path d="M 180.070312 473 L 420 473 L 420 558.941406 L 180.070312 558.941406 Z M 180.070312 473 " clip-rule="nonzero"/></clipPath><clipPath id="7dfbfb9b8c"><path d="M 180.070312 490 L 420 490 L 420 558.941406 L 180.070312 558.941406 Z M 180.070312 490 " clip-rule="nonzero"/></clipPath><clipPath id="fbf883acd1"><path d="M 201 340.691406 L 389 340.691406 L 389 474 L 201 474 Z M 201 340.691406 " clip-rule="nonzero"/></clipPath></defs><g clip-path="url(#369427c888)"><path fill="#e278fc" d="M 381.414062 474.433594 L 387.886719 474.433594 L 418.960938 543.605469 L 180.925781 543.605469 L 202.566406 474.433594 L 209.039062 474.433594 M 237.519531 474.433594 L 352.933594 474.433594 M 352.976562 558.390625 L 180.925781 558.390625 L 180.925781 543.609375 L 418.960938 543.609375 L 418.960938 558.390625 L 352.746094 558.390625 " fill-opacity="1" fill-rule="nonzero"/></g><g clip-path="url(#db0f2e60d6)"><path stroke-linecap="round" transform="matrix(3.082457, 0, 0, -3.082457, -43.532558, 2123.301461)" fill="none" stroke-linejoin="round" d="M 137.859726 534.920061 L 139.959563 534.920061 L 150.040554 512.479558 L 72.818005 512.479558 L 79.838582 534.920061 L 81.938419 534.920061 M 91.177955 534.920061 L 128.62019 534.920061 M 128.634129 507.683009 L 72.818005 507.683009 L 72.818005 512.478291 L 150.040554 512.478291 L 150.040554 507.683009 L 128.559362 507.683009 " stroke="#000000" stroke-width="0.6" stroke-opacity="1" stroke-miterlimit="10"/></g><g clip-path="url(#7dfbfb9b8c)"><path stroke-linecap="round" transform="matrix(3.082457, 0, 0, -3.082457, -43.532558, 2123.301461)" fill="none" stroke-linejoin="round" d="M 134.539525 523.669396 L 136.730604 517.999709 M 150.050692 512.479558 L 72.828143 512.479558 M 83.928005 529.340349 L 80.38857 517.999709 L 141.470127 517.999709 L 136.369437 529.340349 Z M 83.028256 526.520713 L 137.630353 526.520713 M 82.128507 523.69981 L 138.949563 523.69981 M 81.288319 520.878906 L 140.210479 520.878906 M 85.068532 517.999709 L 87.947729 529.340349 M 96.049273 529.340349 L 94.488018 517.999709 M 100.068997 529.340349 L 99.393551 520.834552 M 104.088721 529.340349 L 103.908771 520.834552 M 108.108445 529.340349 L 108.468345 520.834552 M 112.188997 529.340349 L 112.998771 520.834552 M 116.208721 529.340349 L 117.513991 520.834552 M 120.229713 529.340349 L 122.074832 520.834552 M 124.249437 529.340349 L 127.369412 517.999709 M 132.349713 529.340349 L 133.444619 526.505506 M 128.329989 529.340349 L 132.049374 517.999709 M 91.967453 529.340349 L 89.748495 517.999709 M 72.828143 507.683009 L 72.828143 512.479558 L 150.050692 512.479558 L 150.050692 507.683009 " stroke="#000000" stroke-width="0.6" stroke-opacity="1" stroke-miterlimit="10"/></g><path fill="#e278fc" d="M 381.414062 472.769531 L 202.585938 472.769531 L 202.585938 341.636719 L 387.910156 341.636719 L 387.910156 472.769531 L 381.4375 472.769531 " fill-opacity="1" fill-rule="nonzero"/><g clip-path="url(#fbf883acd1)"><path stroke-linecap="round" transform="matrix(3.082457, 0, 0, -3.082457, -43.532558, 2123.301461)" fill="none" stroke-linejoin="round" d="M 137.859726 535.45991 L 79.844918 535.45991 L 79.844918 578.001568 L 139.967166 578.001568 L 139.967166 535.45991 L 137.867329 535.45991 " stroke="#000000" stroke-width="0.6" stroke-opacity="1" stroke-miterlimit="10"/></g><path stroke-linecap="round" transform="matrix(3.082457, 0, 0, -3.082457, -43.532558, 2123.301461)" fill-opacity="1" fill="#e278fc" fill-rule="nonzero" stroke-linejoin="round" d="M 85.302974 574.279648 L 134.804381 574.279648 L 134.804381 539.179296 L 85.302974 539.179296 Z M 85.302974 574.279648 " stroke="#000000" stroke-width="0.6" stroke-opacity="1" stroke-miterlimit="10"/><path stroke-linecap="round" transform="matrix(3.082457, 0, 0, -3.082457, -43.532558, 2123.301461)" fill-opacity="1" fill="#e278fc" fill-rule="nonzero" stroke-linejoin="round" d="M 85.302974 574.279648 L 134.804381 574.279648 L 134.804381 539.179296 L 85.302974 539.179296 Z M 85.302974 574.279648 " stroke="#000000" stroke-width="0.6" stroke-opacity="1" stroke-miterlimit="10"/><path stroke-linecap="butt" transform="matrix(0.595612, 0, 0, -0.595612, 135.20427, 719.385462)" fill="none" stroke-linejoin="miter" d="M 141.377184 433.257923 L 397.567379 433.257923 " stroke="#000000" stroke-width="5.175" stroke-opacity="1" stroke-miterlimit="4"/><path stroke-linecap="round" transform="matrix(3.082457, 0, 0, -3.082457, -43.532558, 2123.301461)" fill="none" stroke-linejoin="round" d="M 128.62019 534.200262 L 137.859726 534.200262 L 137.859726 536.17971 L 128.62019 536.17971 Z M 128.62019 534.200262 " stroke="#000000" stroke-width="0.6" stroke-opacity="1" stroke-miterlimit="10"/><path stroke-linecap="round" transform="matrix(3.082457, 0, 0, -3.082457, -43.532558, 2123.301461)" fill="none" stroke-linejoin="round" d="M 81.943488 536.17971 L 91.183024 536.17971 L 91.183024 534.200262 L 81.943488 534.200262 Z M 81.943488 536.17971 " stroke="#000000" stroke-width="0.6" stroke-opacity="1" stroke-miterlimit="10"/></svg>